<?xml version="1.0" encoding="UTF-8" standalone="no"?>
<svg
   xmlns:dc="http://purl.org/dc/elements/1.1/"
   xmlns:cc="http://creativecommons.org/ns#"
   xmlns:rdf="http://www.w3.org/1999/02/22-rdf-syntax-ns#"
   xmlns:svg="http://www.w3.org/2000/svg"
   xmlns="http://www.w3.org/2000/svg"
   xmlns:sodipodi="http://sodipodi.sourceforge.net/DTD/sodipodi-0.dtd"
   xmlns:inkscape="http://www.inkscape.org/namespaces/inkscape"
   version="1.1"
   id="icon-large-pin"
   x="0px"
   y="0px"
   width="25px"
   height="25px"
   viewBox="0 0 25 25"
   enable-background="new 0 0 25 25"
   xml:space="preserve"
   inkscape:version="0.91 r13725"
   sodipodi:docname="icon-pin.svg"><metadata
     id="metadata3430"><rdf:RDF><cc:Work
         rdf:about=""><dc:format>image/svg+xml</dc:format><dc:type
           rdf:resource="http://purl.org/dc/dcmitype/StillImage" /></cc:Work></rdf:RDF></metadata><defs
     id="defs3428" /><sodipodi:namedview
     pagecolor="#ffffff"
     bordercolor="#666666"
     borderopacity="1"
     objecttolerance="10"
     gridtolerance="10"
     guidetolerance="10"
     inkscape:pageopacity="0"
     inkscape:pageshadow="2"
     inkscape:window-width="1920"
     inkscape:window-height="982"
     id="namedview3426"
     showgrid="false"
     inkscape:zoom="18.88"
     inkscape:cx="13.577719"
     inkscape:cy="10.857248"
     inkscape:window-x="0"
     inkscape:window-y="24"
     inkscape:window-maximized="1"
     inkscape:current-layer="icon-large-pin" /><g
     id="g3420"><path
       fill="#656565"
       d="M12.576,3.047c-2.364,0-4.287,1.923-4.287,4.287c0,2.363,1.923,4.286,4.287,4.286   c2.362,0,4.284-1.923,4.284-4.286C16.86,4.97,14.938,3.047,12.576,3.047z M12.576,10.62c-1.816,0-3.287-1.472-3.287-3.286   c0-1.815,1.47-3.287,3.287-3.287c1.812,0,3.284,1.471,3.284,3.287C15.86,9.148,14.388,10.62,12.576,10.62z"
       id="path3422" /><path
       fill="#656565"
       d="M18.689,3.184C17.312,1.179,15.06,0.019,12.507,0c-0.002,0-0.005,0-0.007,0s-0.005,0-0.007,0   C9.941,0.019,7.688,1.179,6.311,3.184c-1.444,2.104-1.71,4.803-0.73,7.407c0.006,0.017,0.014,0.034,0.021,0.05l5.983,13.595   c0.16,0.363,0.519,0.598,0.915,0.598s0.756-0.234,0.915-0.598l5.983-13.595c0.008-0.017,0.015-0.034,0.021-0.05   C20.399,7.987,20.134,5.288,18.689,3.184z M18.483,10.239L12.5,23.834L6.517,10.239C4.738,5.516,7.752,1.035,12.5,1   C17.248,1.035,20.262,5.516,18.483,10.239z"
       id="path3424" /></g><path
     style="fill:#ff6600"
     d="M 9.4920059,16.944466 C 7.847883,13.209932 6.437876,9.9382994 6.3586572,9.6741712 6.1054316,8.8298767 6.029089,8.210338 6.0598406,7.249204 6.0904817,6.2915234 6.2052284,5.735965 6.5440299,4.9049497 7.0674702,3.6210507 8.1655932,2.4233164 9.4154357,1.7730768 11.878355,0.49172562 15.017672,0.90523204 16.980267,2.7695057 c 0.953116,0.9053671 1.574296,2.0350411 1.868311,3.3977 0.07159,0.3317801 0.09378,0.6640078 0.09119,1.3653765 -0.0036,0.9884905 -0.07825,1.4767701 -0.35609,2.3305085 C 18.463229,10.2332 12.593953,23.616609 12.516551,23.697644 12.497174,23.717931 11.136129,20.679001 9.4920059,16.944466 Z M 13.620092,11.504663 C 15.181613,11.113393 16.368785,9.9067792 16.772537,8.3005907 16.906811,7.7664281 16.896018,6.8425732 16.749023,6.2878788 16.541513,5.5048263 16.180686,4.8674267 15.630613,4.3122101 13.517991,2.1798358 9.9262453,2.8074881 8.6713546,5.5283303 8.4280649,6.0558287 8.3281285,6.4570568 8.288401,7.0658253 c -0.079694,1.221206 0.319106,2.3151912 1.1709791,3.2122167 1.1026359,1.161082 2.6278119,1.610719 4.1607119,1.226621 z"
     id="path3432"
     inkscape:connector-curvature="0" /></svg>