<?xml version="1.0" encoding="UTF-8" standalone="no"?>
<svg
   xmlns:dc="http://purl.org/dc/elements/1.1/"
   xmlns:cc="http://creativecommons.org/ns#"
   xmlns:rdf="http://www.w3.org/1999/02/22-rdf-syntax-ns#"
   xmlns:svg="http://www.w3.org/2000/svg"
   xmlns="http://www.w3.org/2000/svg"
   xmlns:sodipodi="http://sodipodi.sourceforge.net/DTD/sodipodi-0.dtd"
   xmlns:inkscape="http://www.inkscape.org/namespaces/inkscape"
   version="1.1"
   id="icon-visit"
   x="0px"
   y="0px"
   width="20px"
   height="20px"
   viewBox="0 0 20 20"
   enable-background="new 0 0 20 20"
   xml:space="preserve"
   inkscape:version="0.91 r13725"
   sodipodi:docname="icon-visit.svg"><metadata
     id="metadata17"><rdf:RDF><cc:Work
         rdf:about=""><dc:format>image/svg+xml</dc:format><dc:type
           rdf:resource="http://purl.org/dc/dcmitype/StillImage" /></cc:Work></rdf:RDF></metadata><defs
     id="defs15" /><sodipodi:namedview
     pagecolor="#ffffff"
     bordercolor="#666666"
     borderopacity="1"
     objecttolerance="10"
     gridtolerance="10"
     guidetolerance="10"
     inkscape:pageopacity="0"
     inkscape:pageshadow="2"
     inkscape:window-width="646"
     inkscape:window-height="480"
     id="namedview13"
     showgrid="false"
     inkscape:zoom="11.8"
     inkscape:cx="10"
     inkscape:cy="10"
     inkscape:window-x="0"
     inkscape:window-y="24"
     inkscape:window-maximized="0"
     inkscape:current-layer="icon-visit" /><g
     id="g3"
     style="fill:#000080"><polygon
       fill="#FFFFFF"
       points="17.5,10.707 9.5,2.707 1.5,10.707 0.793,10 9.5,1.293 18.207,10  "
       id="polygon5"
       style="fill:#000080" /></g><g
     id="g7"
     style="fill:#000080"><polygon
       fill="#FFFFFF"
       points="17,6 16,6 16,4 14,4 14,3 17,3  "
       id="polygon9"
       style="fill:#000080" /></g><polygon
     fill="#FFFFFF"
     points="15,10 15,17 12,17 12,12 7,12 7,17 4,17 4,10 3,10 3,17 3,18 4,18 7,18 8,18 8,17 8,13 11,13 11,17  11,18 12,18 15,18 16,18 16,17 16,10 "
     id="polygon11"
     style="fill:#000080" /></svg>